<svg xmlns="http://www.w3.org/2000/svg" version="1.1" xmlns:xlink="http://www.w3.org/1999/xlink" xmlns:svgjs="http://svgjs.dev/svgjs" width="1000" height="623" viewBox="0 0 1000 623"><g transform="matrix(1,0,0,1,-0.6060606060606233,0.2522267206477409)"><svg viewBox="0 0 396 247" data-background-color="#c8c8c8" preserveAspectRatio="xMidYMid meet" height="623" width="1000" xmlns="http://www.w3.org/2000/svg" xmlns:xlink="http://www.w3.org/1999/xlink"><g id="tight-bounds" transform="matrix(1,0,0,1,0.2400000000000091,-0.09999999999999432)"><svg viewBox="0 0 395.52 247.2" height="247.2" width="395.52"><g><svg></svg></g><g><svg viewBox="0 0 395.52 247.2" height="247.2" width="395.52"><g transform="matrix(1,0,0,1,75.54432,75.26424823712347)"><svg viewBox="0 0 244.43135999999998 96.67150352575305" height="96.67150352575305" width="244.43135999999998"><g><svg viewBox="0 0 244.43135999999998 96.67150352575305" height="96.67150352575305" width="244.43135999999998"><g><svg viewBox="0 0 244.43135999999998 96.67150352575305" height="96.67150352575305" width="244.43135999999998"><g><svg viewBox="0 0 244.43135999999998 96.67150352575305" height="96.67150352575305" width="244.43135999999998"><g><svg viewBox="0 0 244.43135999999998 96.67150352575305" height="96.67150352575305" width="244.43135999999998"><g><svg viewBox="0 0 244.43135999999998 54.889849263157885" height="54.889849263157885" width="244.43135999999998"><g transform="matrix(1,0,0,1,0,0)"><svg width="244.43135999999998" viewBox="1.7000000476837158 -38.5 199.49000549316406 44.79999923706055" height="54.889849263157885" data-palette-color="#ffffff"><path d="M27.2 0L24.7-7.1 10.15-7.1 7.65 0 1.7 0 14.15-34.8 20.75-34.8 33.2 0 27.2 0ZM11.75-11.75L23.1-11.75 17.45-27.9 11.75-11.75ZM52.5-28Q55.75-28 58.32-26.65 60.9-25.3 62.35-22.65 63.8-20 63.8-16.25L63.8-16.25 63.8 0 58.15 0 58.15-15.4Q58.15-19.1 56.3-21.08 54.45-23.05 51.25-23.05L51.25-23.05Q48.05-23.05 46.17-21.08 44.3-19.1 44.3-15.4L44.3-15.4 44.3 0 38.6 0 38.6-27.55 44.3-27.55 44.3-24.4Q45.7-26.1 47.87-27.05 50.05-28 52.5-28L52.5-28ZM73.95-31.2Q72.4-31.2 71.35-32.25 70.3-33.3 70.3-34.85L70.3-34.85Q70.3-36.4 71.35-37.45 72.4-38.5 73.95-38.5L73.95-38.5Q75.45-38.5 76.5-37.45 77.55-36.4 77.55-34.85L77.55-34.85Q77.55-33.3 76.5-32.25 75.45-31.2 73.95-31.2L73.95-31.2ZM71.05-27.55L76.75-27.55 76.75 0 71.05 0 71.05-27.55ZM117.59-28Q120.84-28 123.42-26.65 125.99-25.3 127.47-22.65 128.94-20 128.94-16.25L128.94-16.25 128.94 0 123.29 0 123.29-15.4Q123.29-19.1 121.44-21.08 119.59-23.05 116.39-23.05L116.39-23.05Q113.19-23.05 111.32-21.08 109.44-19.1 109.44-15.4L109.44-15.4 109.44 0 103.79 0 103.79-15.4Q103.79-19.1 101.94-21.08 100.09-23.05 96.89-23.05L96.89-23.05Q93.69-23.05 91.82-21.08 89.94-19.1 89.94-15.4L89.94-15.4 89.94 0 84.24 0 84.24-27.55 89.94-27.55 89.94-24.4Q91.34-26.1 93.49-27.05 95.64-28 98.09-28L98.09-28Q101.39-28 103.99-26.6 106.59-25.2 107.99-22.55L107.99-22.55Q109.24-25.05 111.89-26.53 114.54-28 117.59-28L117.59-28ZM161.44-14.45Q161.44-12.9 161.24-11.65L161.24-11.65 140.19-11.65Q140.44-8.35 142.64-6.35 144.84-4.35 148.04-4.35L148.04-4.35Q152.64-4.35 154.54-8.2L154.54-8.2 160.69-8.2Q159.44-4.4 156.17-1.98 152.89 0.45 148.04 0.45L148.04 0.45Q144.09 0.45 140.97-1.33 137.84-3.1 136.07-6.33 134.29-9.55 134.29-13.8L134.29-13.8Q134.29-18.05 136.02-21.28 137.74-24.5 140.87-26.25 143.99-28 148.04-28L148.04-28Q151.94-28 154.99-26.3 158.04-24.6 159.74-21.53 161.44-18.45 161.44-14.45L161.44-14.45ZM140.24-16.25L155.49-16.25Q155.44-19.4 153.24-21.3 151.04-23.2 147.79-23.2L147.79-23.2Q144.84-23.2 142.74-21.33 140.64-19.45 140.24-16.25L140.24-16.25ZM201.19 6.3L193.94 6.3 187.84-0.3Q185.59 0.35 182.89 0.35L182.89 0.35Q178.04 0.35 173.96-1.93 169.89-4.2 167.51-8.28 165.14-12.35 165.14-17.45L165.14-17.45Q165.14-22.55 167.51-26.6 169.89-30.65 173.96-32.93 178.04-35.2 182.89-35.2L182.89-35.2Q187.79-35.2 191.86-32.93 195.94-30.65 198.29-26.6 200.64-22.55 200.64-17.45L200.64-17.45Q200.64-12.65 198.56-8.78 196.49-4.9 192.84-2.55L192.84-2.55 201.19 6.3ZM170.99-17.45Q170.99-13.6 172.51-10.68 174.04-7.75 176.74-6.18 179.44-4.6 182.89-4.6L182.89-4.6Q186.34-4.6 189.04-6.18 191.74-7.75 193.26-10.68 194.79-13.6 194.79-17.45L194.79-17.45Q194.79-21.3 193.26-24.2 191.74-27.1 189.04-28.65 186.34-30.2 182.89-30.2L182.89-30.2Q179.44-30.2 176.74-28.65 174.04-27.1 172.51-24.2 170.99-21.3 170.99-17.45L170.99-17.45Z" opacity="1" transform="matrix(1,0,0,1,0,0)" fill="#ffffff" class="undefined-text-0" data-fill-palette-color="primary" id="text-0"></path></svg></g></svg></g><g transform="matrix(1,0,0,1,0,67.84802531780714)"><svg viewBox="0 0 244.43135999999998 28.823478207945907" height="28.823478207945907" width="244.43135999999998"><g transform="matrix(1,0,0,1,0,0)"><svg width="244.43135999999998" viewBox="0 -32.04999923706055 354.8699951171875 41.849998474121094" height="28.823478207945907" data-palette-color="#fbfbfb"><path d="M7.3 0L0 0 14.65-29.4 24.5-29.4 39.1 0 31.4 0 28.45-6.35 10.55-6.35 7.3 0ZM19.25-24.9L12.35-11.25 26.6-11.25 19.75-24.9 19.25-24.9ZM48.2 0L42.1 0 42.1-22.4 46.2-22.4 48.2-21.4Q50.3-21.8 53.25-22.1 56.2-22.4 60-22.4L60-22.4 62.5-22.4Q65-22.4 66.35-21.7 67.7-21 68.27-19.95 68.85-18.9 68.97-17.82 69.1-16.75 69.1-16L69.1-16 69.1 0 63 0 63-16.1Q63-18.1 60.6-18.1L60.6-18.1 49.7-18.1Q48.75-18.1 48.47-17.93 48.2-17.75 48.2-17L48.2-17 48.2 0ZM78.39-25.55L78.39-25.55Q76.55-25.55 75.69-26.3 74.84-27.05 74.84-28.8L74.84-28.8Q74.84-30.6 75.67-31.33 76.5-32.05 78.39-32.05L78.39-32.05Q80.3-32.05 81.14-31.33 82-30.6 82-28.8L82-28.8Q82-27.1 81.14-26.33 80.3-25.55 78.39-25.55ZM81.44 0L75.34 0 75.34-22.4 81.44-22.4 81.44 0ZM94.09 0L87.99 0 87.99-22.4 92.09-22.4 93.34-21.8Q94.79-22.05 96.89-22.23 98.99-22.4 101.89-22.4L101.89-22.4 104.39-22.4Q105.84-22.4 107.19-22.03 108.54-21.65 109.19-20.95L109.19-20.95Q110.49-21.6 112.79-22 115.09-22.4 118.79-22.4L118.79-22.4 121.29-22.4Q123.79-22.4 125.14-21.7 126.49-21 127.07-19.95 127.64-18.9 127.77-17.82 127.89-16.75 127.89-16L127.89-16 127.89 0 121.79 0 121.79-16.1Q121.79-18.1 119.39-18.1L119.39-18.1 112.39-18.1Q111.59-18.1 111.29-17.9 110.99-17.7 110.99-17L110.99-17 110.99 0 104.89 0 104.89-16.1Q104.89-18.1 102.49-18.1L102.49-18.1 95.59-18.1Q94.64-18.1 94.37-17.93 94.09-17.75 94.09-17L94.09-17 94.09 0ZM149.79 0L139.74 0Q137.24 0 135.89-0.65 134.54-1.3 133.97-2.3 133.39-3.3 133.27-4.4 133.14-5.5 133.14-6.4L133.14-6.4 133.14-16Q133.14-16.75 133.27-17.82 133.39-18.9 133.97-19.95 134.54-21 135.92-21.7 137.29-22.4 139.74-22.4L139.74-22.4 150.49-22.4Q153.79-22.4 155.67-21.78 157.54-21.15 158.32-19.75 159.09-18.35 159.09-16L159.09-16 159.09-8.6 150.34-8.6Q145.84-8.6 143.02-8.8 140.19-9 139.24-9.05L139.24-9.05 139.24-6.3Q139.19-4.3 141.64-4.3L141.64-4.3 144.19-4.3Q146.89-4.3 149.47-4.38 152.04-4.45 154.19-4.58 156.34-4.7 157.64-4.8L157.64-4.8 159.64-1.55Q159.64 0 149.79 0L149.79 0ZM139.24-16.1L139.24-12.9 152.99-12.9 152.99-16.1Q152.99-17.1 152.77-17.5 152.54-17.9 151.44-18 150.34-18.1 147.69-18.1L147.69-18.1 141.64-18.1Q139.24-18.1 139.24-16.1L139.24-16.1ZM185.29 0L185.29 0Q181.79 0 179.79-1 177.79-2 176.96-4 176.14-6 176.14-8.95L176.14-8.95 176.14-20.5Q176.14-23.4 176.94-25.38 177.74-27.35 179.74-28.38 181.74-29.4 185.29-29.4L185.29-29.4 199.89-29.4Q203.39-29.4 205.36-28.38 207.34-27.35 208.16-25.38 208.99-23.4 208.99-20.5L208.99-20.5 208.99-13.95Q208.99-10.2 208.06-7.98 207.14-5.75 204.79-4.2L204.79-4.2Q203.34-3.25 199.84-1.9L199.84-1.9Q201.94-1.55 203.76-1.18 205.59-0.8 206.94-0.55L206.94-0.55Q208.59-0.25 210.31-0.03 212.04 0.2 213.34 0.33 214.64 0.45 214.94 0.5L214.94 0.5 213.84 4.8Q213.64 4.85 212.79 5.03 211.94 5.2 210.49 5.2L210.49 5.2Q208.34 5.2 206.46 4.78 204.59 4.35 202.34 3.65L202.34 3.65Q200.34 3 198.66 2.35 196.99 1.7 195.19 1.18 193.39 0.65 191.04 0.33 188.69 0 185.29 0ZM186.74-4.8L186.74-4.8 192.94-4.8Q196.29-4.8 198.36-5.58 200.44-6.35 201.41-8.33 202.39-10.3 202.39-13.85L202.39-13.85 202.39-21.1Q202.39-22.55 201.34-23.58 200.29-24.6 198.49-24.6L198.49-24.6 186.74-24.6Q184.94-24.6 183.84-23.65 182.74-22.7 182.74-21.1L182.74-21.1 182.74-8.35Q182.74-6.65 183.81-5.73 184.89-4.8 186.74-4.8ZM225.08 0L222.53 0Q220.08 0 218.71-0.65 217.33-1.3 216.76-2.3 216.18-3.3 216.06-4.4 215.93-5.5 215.93-6.4L215.93-6.4 215.93-22.4 222.03-22.4 222.03-6.3Q221.98-5.2 222.76-4.75 223.53-4.3 224.43-4.3L224.43-4.3 234.33-4.3Q235.43-4.3 235.63-4.5 235.83-4.7 235.83-5.8L235.83-5.8 235.83-22.4 241.93-22.4 241.93 0 237.83 0 235.93-1Q233.93-0.6 231.21-0.3 228.48 0 225.08 0L225.08 0ZM256.88 0L254.38 0Q250.58 0 248.88-1.78 247.18-3.55 247.18-6.65L247.18-6.65Q247.18-9.9 248.96-11.65 250.73-13.4 254.38-13.4L254.38-13.4 256.93-13.4Q260.68-13.4 263.68-13.2 266.68-13 268.63-12.8L268.63-12.8 268.63-16.1Q268.63-16.55 268.53-17.03 268.43-17.5 267.93-17.8 267.43-18.1 266.23-18.1L266.23-18.1 263.73-18.1Q258.28-18.1 254.63-17.93 250.98-17.75 249.68-17.6L249.68-17.6 249.13-21.4Q249.13-22.1 252.93-22.25 256.73-22.4 265.63-22.4L265.63-22.4 268.13-22.4Q270.63-22.4 271.98-21.7 273.33-21 273.91-19.95 274.48-18.9 274.61-17.82 274.73-16.75 274.73-16L274.73-16 274.73 0 270.63 0 268.68-1Q266.58-0.65 263.63-0.33 260.68 0 256.88 0L256.88 0ZM255.68-4.3L255.68-4.3 267.13-4.3Q268.23-4.3 268.43-4.5 268.63-4.7 268.63-5.75L268.63-5.75 268.63-9.6 255.68-9.6Q254.33-9.6 253.81-8.95 253.28-8.3 253.28-6.9L253.28-6.9Q253.28-5.5 253.88-4.9 254.48-4.3 255.68-4.3ZM287.08 0L280.98 0 280.98-27.7 280.48-31.7 287.08-31.7 287.08 0ZM296.63-25.55L296.63-25.55Q294.78-25.55 293.93-26.3 293.08-27.05 293.08-28.8L293.08-28.8Q293.08-30.6 293.9-31.33 294.73-32.05 296.63-32.05L296.63-32.05Q298.53-32.05 299.38-31.33 300.23-30.6 300.23-28.8L300.23-28.8Q300.23-27.1 299.38-26.33 298.53-25.55 296.63-25.55ZM299.68 0L293.58 0 293.58-22.4 299.68-22.4 299.68 0ZM316.47 0L314.92 0Q311.12 0 309.72-1.6 308.32-3.2 308.32-6.4L308.32-6.4 308.32-18.1 304.22-18.1 304.22-22.4 306.32-22.4Q307.27-22.4 307.7-22.7 308.12-23 308.32-23.9L308.32-23.9 309.32-29.25 314.42-29.25 314.42-22.4 324.82-22.4 324.82-18.1 314.42-18.1 314.42-6.35Q314.42-5.1 315.02-4.7 315.62-4.3 316.82-4.3L316.82-4.3 323.87-4.3 324.37-0.5Q323.32-0.35 321.17-0.18 319.02 0 316.47 0L316.47 0ZM332.27 9.8L330.92 9.8Q328.52 9.8 326.52 9.25 324.52 8.7 323.82 8.25L323.82 8.25 325.32 3.75Q326.17 4.1 327.75 4.58 329.32 5.05 331.32 5.05L331.32 5.05 331.87 5.05Q334.17 5.05 335.95 3.68 337.72 2.3 338.67 0L338.67 0 336.17 0 326.37-22.4 333.37-22.4 339.12-8.6 340.42-5 340.92-5 342.22-8.6 348.07-22.4 354.87-22.4 354.07-19.35Q353.12-17.4 351.9-14.88 350.67-12.35 349.37-9.65 348.07-6.95 346.85-4.45 345.62-1.95 344.67 0L344.67 0Q343.22 3 341.5 5.2 339.77 7.4 337.55 8.6 335.32 9.8 332.27 9.8L332.27 9.8Z" opacity="1" transform="matrix(1,0,0,1,0,0)" fill="#fbfbfb" class="undefined-text-1" data-fill-palette-color="secondary" id="text-1"></path></svg></g></svg></g></svg></g></svg></g></svg></g></svg></g></svg></g><path d="M166.495 69.264L166.495 9.62 394.455 9.62 394.455 237.58 166.495 237.58 166.495 177.936 171.445 177.936 171.445 232.63 389.505 232.63 389.505 14.57 171.445 14.57 171.445 69.264Z" fill="#ffffff" stroke="transparent" data-fill-palette-color="primary"></path></svg></g><defs></defs></svg><rect width="395.52" height="247.2" fill="none" stroke="none" visibility="hidden"></rect></g></svg></g></svg>